<svg xmlns="http://www.w3.org/2000/svg" width="800" height="800" viewBox="0 0 800 800">
  <g fill="none" stroke="#f4c542" stroke-width="16" stroke-linecap="round" opacity="0.35">
    <path d="M130 530c60-130 210-230 360-190 77 20 146 76 175 145"/>
    <path d="M174 465c51-82 139-153 245-162 118-10 228 47 280 147"/>
    <path d="M270 416c63-63 180-100 266-53 57 32 96 86 104 143"/>
    <path d="M512 253c14-46 52-76 96-86"/>
    <path d="M365 580c70 20 145 18 214-10"/>
    <circle cx="586" cy="160" r="25"/>
    <path d="M558 139l-27-23M615 145l30-17M582 198l-5 35"/>
  </g>
</svg>
